<svg width="18" height="15" viewBox="0 0 18 15" fill="none" xmlns="http://www.w3.org/2000/svg">
<path d="M0 1H18V1C17.0681 1 16.6022 1 16.2346 1.15224C15.7446 1.35523 15.3552 1.74458 15.1522 2.23463C15 2.60218 15 3.06812 15 4V10C15 11.8856 15 12.8284 14.4142 13.4142C13.8284 14 12.8856 14 11 14H7C5.11438 14 4.17157 14 3.58579 13.4142C3 12.8284 3 11.8856 3 10V4C3 3.06812 3 2.60218 2.84776 2.23463C2.64477 1.74458 2.25542 1.35523 1.76537 1.15224C1.39782 1 0.931883 1 0 1V1Z" stroke="white" strokeWidth="2" strokeLinecap="round"/>
</svg>
